<svg xmlns="http://www.w3.org/2000/svg" viewBox="0 0 134 305" width="134" height="305">
	<defs>
		<clipPath clipPathUnits="userSpaceOnUse" id="cp1">
			<path d="M81.93 259.59C83.17 257.12 84.42 254.6 85.72 251.96C76.88 259.99 69.64 266.29 64.53 270.63C65.97 271.81 66.74 272.43 66.74 272.43C66.74 272.43 72.38 267.91 81.93 259.59Z" />
		</clipPath>
		<linearGradient id="grd1" gradientUnits="userSpaceOnUse"  x1="26.8" y1="262.197" x2="85.718" y2="262.197">
			<stop offset="0" stop-color="#bcbbb9"  />
			<stop offset="1" stop-color="#595a5c"  />
		</linearGradient>
	</defs>
	<style>
		tspan { white-space:pre }
		.shp0 { fill: url(#grd1) } 
		.shp1 { fill: #100f0d } 
	</style>
	<g id="g18">
		<g id="g20">
			<g id="g22">
				<g id="Clip-Path: g24" clip-path="url(#cp1)">
					<g id="g24">
						<path id="path36" class="shp0" d="M81.93 259.59C83.17 257.12 84.42 254.6 85.72 251.96C76.88 259.99 69.64 266.29 64.53 270.63C65.97 271.81 66.74 272.43 66.74 272.43C66.74 272.43 72.38 267.91 81.93 259.59Z" />
					</g>
				</g>
			</g>
			<path id="path38" fill-rule="evenodd" class="shp1" d="M66.74 305.03C65.71 305.03 64.75 304.48 64.21 303.6C64.08 303.39 51.43 282.41 34.63 248.18C34 246.91 34.37 245.37 35.51 244.51C36.64 243.66 38.22 243.73 39.28 244.69C52.87 257.05 62.81 265.37 66.74 268.61C70.68 265.37 80.62 257.05 94.21 244.69C95.26 243.73 96.85 243.66 97.98 244.51C99.12 245.37 99.49 246.91 98.86 248.18C82.06 282.41 69.4 303.39 69.28 303.6C68.74 304.48 67.78 305.03 66.74 305.03ZM46.88 259.43C55.94 277.2 63.14 289.97 66.74 296.22C70.35 289.97 77.55 277.2 86.61 259.43C75.47 269.21 68.68 274.67 68.6 274.74C67.51 275.61 65.97 275.61 64.89 274.74C64.8 274.67 58.01 269.21 46.88 259.43Z" />
			<path id="path40" fill-rule="evenodd" class="shp1" d="M66.74 275.39C66.09 275.39 65.43 275.18 64.89 274.74C64.78 274.65 53.14 265.3 35.29 249.07C35.02 248.82 34.79 248.52 34.63 248.18L33.37 245.61C31.57 241.92 29.82 238.35 28.12 234.9C11.79 201.67 0 177.67 0 151.03C0 122.31 30.7 16.96 32.01 12.49C32.17 11.93 32.5 11.44 32.94 11.06C33.47 10.61 46.26 0 66.74 0C87.22 0 100.01 10.61 100.55 11.06C100.99 11.44 101.32 11.93 101.48 12.49C102.79 16.96 133.49 122.31 133.49 151.03C133.49 177.67 121.7 201.67 105.38 234.89C103.68 238.35 101.92 241.92 100.12 245.61L98.86 248.18C98.7 248.52 98.47 248.82 98.2 249.07C80.35 265.3 68.71 274.65 68.6 274.74C68.06 275.18 67.4 275.39 66.74 275.39ZM39.69 245.07C53.08 257.22 62.85 265.41 66.74 268.61C70.64 265.41 80.41 257.22 93.79 245.07L94.79 243.02C96.6 239.32 98.36 235.74 100.06 232.28C116.62 198.56 127.57 176.29 127.57 151.03C127.57 124.53 99.14 25.72 96.06 15.08C93.34 13.08 82.5 5.92 66.74 5.92C50.89 5.92 40.13 13.07 37.43 15.07C34.35 25.68 5.92 124.53 5.92 151.03C5.92 176.29 16.87 198.57 33.43 232.29C35.13 235.75 36.89 239.32 38.69 243.02L39.69 245.07ZM66.74 158.59C54.51 158.59 44.55 148.63 44.55 136.39C44.55 124.15 54.51 114.2 66.74 114.2C78.98 114.2 88.94 124.15 88.94 136.39C88.94 148.63 78.98 158.59 66.74 158.59ZM66.74 120.12C57.77 120.12 50.47 127.42 50.47 136.39C50.47 145.37 57.77 152.67 66.74 152.67C75.72 152.67 83.02 145.37 83.02 136.39C83.02 127.42 75.72 120.12 66.74 120.12Z" />
		</g>
	</g>
</svg>